<?xml version="1.0" encoding="UTF-8"?>
<svg xmlns="http://www.w3.org/2000/svg" xmlns:xlink="http://www.w3.org/1999/xlink" width="3750" height="2250" viewBox="0 0 3750 2250">
<rect x="-375" y="-225" width="4500" height="2700" fill="rgb(98.826599%, 89.0625%, 88.671875%)" fill-opacity="1"/>
<path fill-rule="nonzero" fill="rgb(39.988708%, 60.351562%, 60.742188%)" fill-opacity="1" d="M 0 1501.363281 L 0 2250 L 1319.890625 2250 C 1222.628906 2081.980469 840.378906 1894.753906 798.339844 1829.597656 C 660.316406 1615.660156 605.1875 1684.226562 359.019531 1655.609375 C 212.707031 1638.601562 178.875 1537.492188 59.636719 1509.769531 C 38.804688 1504.925781 18.96875 1502.21875 0 1501.363281 Z M 0 1501.363281 "/>
<path fill-rule="nonzero" fill="rgb(65.818787%, 82.03125%, 80.46875%)" fill-opacity="1" d="M 60.1875 1872.582031 C 55.699219 1872.734375 50.886719 1873.265625 45.714844 1874.230469 C 30.105469 1877.132812 14.890625 1881.851562 0 1887.984375 L 0 2250 L 609.488281 2250 C 552.949219 2100.527344 304.089844 2039.042969 177.585938 1980.214844 C 122.617188 1954.65625 127.53125 1870.34375 60.1875 1872.582031 Z M 60.1875 1872.582031 "/>
<path fill-rule="nonzero" fill="rgb(100%, 71.289062%, 72.068787%)" fill-opacity="1" d="M 313.222656 1588.773438 C 298.304688 1588.859375 292.632812 1592.441406 284.730469 1597.8125 C 246.242188 1624 281.355469 1681.960938 328.113281 1656.25 C 334.882812 1652.523438 337.226562 1589.601562 318.164062 1588.871094 C 316.410156 1588.800781 314.773438 1588.765625 313.222656 1588.773438 Z M 656.496094 1639.40625 C 641.578125 1639.492188 635.898438 1643.066406 628.003906 1648.445312 C 589.507812 1674.625 624.621094 1732.585938 671.378906 1706.875 C 678.152344 1703.15625 680.5 1640.234375 661.433594 1639.488281 C 659.675781 1639.425781 658.039062 1639.398438 656.496094 1639.40625 Z M 479.574219 1681.59375 C 464.648438 1681.679688 458.972656 1685.261719 451.074219 1690.636719 C 412.585938 1716.824219 447.691406 1774.777344 494.457031 1749.066406 C 501.230469 1745.347656 503.570312 1682.421875 484.511719 1681.6875 C 482.757812 1681.621094 481.113281 1681.589844 479.574219 1681.597656 Z M 393.6875 1721.644531 C 378.769531 1721.726562 373.09375 1725.304688 365.195312 1730.675781 C 326.707031 1756.863281 361.8125 1814.816406 408.578125 1789.105469 C 415.34375 1785.386719 417.691406 1722.46875 398.632812 1721.734375 C 396.875 1721.664062 395.230469 1721.636719 393.6875 1721.644531 Z M 217.953125 1739.257812 C 203.035156 1739.339844 197.363281 1742.921875 189.460938 1748.296875 C 150.972656 1774.484375 186.085938 1832.4375 232.84375 1806.726562 C 239.617188 1803.007812 241.957031 1740.082031 222.890625 1739.347656 C 221.140625 1739.28125 219.503906 1739.25 217.953125 1739.257812 Z M 591.871094 1752.363281 C 576.945312 1752.445312 571.269531 1756.015625 563.371094 1761.390625 C 524.882812 1787.574219 559.992188 1845.535156 606.753906 1819.824219 C 613.527344 1816.101562 615.871094 1753.183594 596.808594 1752.445312 C 595.054688 1752.375 593.410156 1752.355469 591.871094 1752.363281 Z M 113.03125 1807.097656 C 98.113281 1807.183594 92.441406 1810.753906 84.539062 1816.125 C 46.050781 1842.3125 81.15625 1900.273438 127.921875 1874.5625 C 134.6875 1870.835938 137.035156 1807.917969 117.96875 1807.183594 C 116.21875 1807.113281 114.582031 1807.085938 113.03125 1807.097656 Z M 525.804688 1835.296875 C 510.886719 1835.382812 505.207031 1838.957031 497.3125 1844.332031 C 458.820312 1870.515625 493.929688 1928.476562 540.691406 1902.765625 C 547.464844 1899.039062 549.808594 1836.125 530.75 1835.386719 C 528.992188 1835.316406 527.355469 1835.292969 525.804688 1835.296875 Z M 704.886719 1837.707031 C 689.960938 1837.792969 684.289062 1841.367188 676.386719 1846.742188 C 637.902344 1872.925781 673.003906 1930.886719 719.773438 1905.171875 C 726.539062 1901.449219 728.890625 1838.535156 709.824219 1837.792969 C 708.074219 1837.726562 706.429688 1837.699219 704.886719 1837.707031 Z M 322.679688 1847.582031 C 307.753906 1847.667969 302.082031 1851.25 294.1875 1856.621094 C 255.691406 1882.808594 290.804688 1940.761719 337.5625 1915.050781 C 344.335938 1911.332031 346.675781 1848.414062 327.617188 1847.671875 C 325.859375 1847.605469 324.222656 1847.574219 322.679688 1847.582031 Z M 443.234375 1856.796875 C 428.316406 1856.882812 422.636719 1860.464844 414.742188 1865.839844 C 376.246094 1892.019531 411.359375 1949.980469 458.117188 1924.269531 C 464.890625 1920.542969 467.238281 1857.625 448.171875 1856.890625 C 446.421875 1856.820312 444.777344 1856.792969 443.234375 1856.800781 Z M 573.699219 1918.238281 C 558.773438 1918.316406 553.101562 1921.890625 545.207031 1927.265625 C 506.714844 1953.449219 541.824219 2011.410156 588.585938 1985.699219 C 595.359375 1981.980469 597.703125 1919.058594 578.640625 1918.320312 C 576.886719 1918.25 575.242188 1918.226562 573.699219 1918.238281 Z M 184.691406 1938.957031 C 169.765625 1939.042969 164.09375 1942.625 156.191406 1948 C 117.703125 1974.183594 152.816406 2032.136719 199.574219 2006.429688 C 206.347656 2002.707031 208.6875 1939.792969 189.628906 1939.050781 C 187.871094 1938.984375 186.234375 1938.953125 184.691406 1938.957031 Z M 355.410156 1950.78125 C 340.484375 1950.867188 334.8125 1954.441406 326.917969 1959.816406 C 288.421875 1986 323.535156 2043.960938 370.292969 2018.25 C 377.066406 2014.523438 379.414062 1951.609375 360.347656 1950.871094 C 358.597656 1950.800781 356.949219 1950.765625 355.410156 1950.78125 Z M 474.613281 1988.878906 C 459.695312 1988.96875 454.015625 1992.546875 446.121094 1997.921875 C 407.625 2024.105469 442.738281 2082.0625 489.496094 2056.351562 C 496.269531 2052.632812 498.609375 1989.714844 479.550781 1988.972656 C 477.792969 1988.90625 476.15625 1988.875 474.613281 1988.886719 Z M 246.707031 2039.570312 C 231.789062 2039.648438 226.105469 2043.226562 218.214844 2048.597656 C 179.726562 2074.785156 214.832031 2132.742188 261.589844 2107.035156 C 268.363281 2103.3125 270.710938 2040.398438 251.652344 2039.660156 C 249.894531 2039.589844 248.253906 2039.558594 246.707031 2039.570312 Z M 383.777344 2070.289062 C 368.859375 2070.371094 363.183594 2073.945312 355.285156 2079.320312 C 316.796875 2105.503906 351.902344 2163.464844 398.667969 2137.75 C 405.441406 2134.027344 407.785156 2071.109375 388.722656 2070.371094 C 386.964844 2070.304688 385.324219 2070.277344 383.777344 2070.285156 Z M 383.777344 2070.289062 "/>
<path fill-rule="nonzero" fill="rgb(100%, 71.289062%, 72.068787%)" fill-opacity="1" d="M 1093.109375 1597.976562 C 1078.191406 1598.0625 1072.519531 1601.644531 1064.621094 1607.019531 C 1026.128906 1633.203125 1061.238281 1691.164062 1108 1665.453125 C 1114.769531 1661.726562 1117.109375 1598.804688 1098.050781 1598.074219 C 1096.300781 1598.003906 1094.660156 1597.96875 1093.109375 1597.976562 Z M 1436.378906 1648.609375 C 1421.460938 1648.695312 1415.789062 1652.269531 1407.890625 1657.648438 C 1369.390625 1683.828125 1404.511719 1741.789062 1451.269531 1716.078125 C 1458.039062 1712.359375 1460.390625 1649.4375 1441.320312 1648.695312 C 1439.558594 1648.628906 1437.929688 1648.601562 1436.378906 1648.609375 Z M 1259.460938 1690.800781 C 1244.53125 1690.882812 1238.859375 1694.464844 1230.960938 1699.839844 C 1192.46875 1726.027344 1227.570312 1783.980469 1274.339844 1758.269531 C 1281.121094 1754.550781 1283.449219 1691.625 1264.398438 1690.890625 C 1262.640625 1690.824219 1261 1690.792969 1259.460938 1690.800781 Z M 1173.570312 1730.847656 C 1158.660156 1730.929688 1152.980469 1734.507812 1145.078125 1739.882812 C 1106.589844 1766.066406 1141.699219 1824.019531 1188.460938 1798.308594 C 1195.230469 1794.589844 1197.578125 1731.671875 1178.519531 1730.9375 C 1176.761719 1730.867188 1175.109375 1730.839844 1173.570312 1730.847656 Z M 997.839844 1748.460938 C 982.921875 1748.542969 977.25 1752.128906 969.347656 1757.5 C 930.859375 1783.6875 965.972656 1841.640625 1012.730469 1815.929688 C 1019.5 1812.210938 1021.839844 1749.289062 1002.78125 1748.550781 C 1001.03125 1748.484375 999.386719 1748.453125 997.839844 1748.460938 Z M 1371.761719 1761.566406 C 1356.828125 1761.652344 1351.160156 1765.21875 1343.261719 1770.59375 C 1304.769531 1796.78125 1339.878906 1854.738281 1386.640625 1829.03125 C 1393.410156 1825.304688 1395.761719 1762.386719 1376.691406 1761.652344 C 1374.941406 1761.578125 1373.300781 1761.558594 1371.761719 1761.566406 Z M 892.917969 1816.300781 C 878 1816.386719 872.328125 1819.957031 864.425781 1825.328125 C 825.9375 1851.515625 861.042969 1909.476562 907.808594 1883.765625 C 914.574219 1880.039062 916.921875 1817.121094 897.855469 1816.386719 C 896.105469 1816.316406 894.464844 1816.289062 892.917969 1816.300781 Z M 1305.691406 1844.5 C 1290.769531 1844.585938 1285.089844 1848.160156 1277.199219 1853.535156 C 1238.710938 1879.71875 1273.820312 1937.679688 1320.578125 1911.96875 C 1327.351562 1908.246094 1329.691406 1845.328125 1310.640625 1844.589844 C 1308.878906 1844.519531 1307.238281 1844.496094 1305.691406 1844.5 Z M 1484.769531 1846.910156 C 1469.851562 1846.996094 1464.179688 1850.570312 1456.269531 1855.945312 C 1417.789062 1882.128906 1452.890625 1940.089844 1499.660156 1914.375 C 1506.429688 1910.65625 1508.78125 1847.738281 1489.710938 1846.996094 C 1487.960938 1846.929688 1486.320312 1846.902344 1484.769531 1846.910156 Z M 1102.570312 1856.785156 C 1087.640625 1856.871094 1081.96875 1860.453125 1074.070312 1865.828125 C 1035.578125 1892.011719 1070.691406 1949.964844 1117.449219 1924.253906 C 1124.21875 1920.535156 1126.558594 1857.617188 1107.5 1856.875 C 1105.75 1856.8125 1104.109375 1856.78125 1102.570312 1856.785156 Z M 1223.121094 1866.003906 C 1208.199219 1866.085938 1202.519531 1869.667969 1194.628906 1875.042969 C 1156.128906 1901.222656 1191.25 1959.183594 1238 1933.472656 C 1244.78125 1929.746094 1247.128906 1866.828125 1228.058594 1866.09375 C 1226.308594 1866.023438 1224.660156 1865.996094 1223.121094 1866.003906 Z M 1353.589844 1927.441406 C 1338.660156 1927.519531 1332.988281 1931.09375 1325.089844 1936.46875 C 1286.601562 1962.65625 1321.710938 2020.613281 1368.46875 1994.90625 C 1375.238281 1991.183594 1377.589844 1928.261719 1358.519531 1927.527344 C 1356.769531 1927.453125 1355.128906 1927.429688 1353.589844 1927.441406 Z M 964.578125 1948.160156 C 949.652344 1948.246094 943.980469 1951.828125 936.078125 1957.203125 C 897.589844 1983.386719 932.703125 2041.34375 979.460938 2015.632812 C 986.234375 2011.914062 988.574219 1948.996094 969.515625 1948.253906 C 967.757812 1948.1875 966.117188 1948.15625 964.578125 1948.160156 Z M 1135.300781 1959.984375 C 1120.371094 1960.070312 1114.699219 1963.644531 1106.808594 1969.019531 C 1068.308594 1995.203125 1103.421875 2053.164062 1150.179688 2027.453125 C 1156.949219 2023.730469 1159.300781 1960.8125 1140.230469 1960.074219 C 1138.480469 1960.003906 1136.839844 1959.96875 1135.300781 1959.984375 Z M 1254.5 1998.082031 C 1239.578125 1998.175781 1233.898438 2001.75 1226.011719 2007.125 C 1187.511719 2033.3125 1222.628906 2091.265625 1269.378906 2065.554688 C 1276.160156 2061.835938 1278.5 1998.917969 1259.441406 1998.175781 C 1257.679688 1998.109375 1256.039062 1998.078125 1254.5 1998.089844 Z M 1026.589844 2048.773438 C 1011.671875 2048.851562 1005.988281 2052.429688 998.101562 2057.804688 C 959.613281 2083.988281 994.714844 2141.949219 1041.480469 2116.238281 C 1048.25 2112.515625 1050.589844 2049.601562 1031.539062 2048.867188 C 1029.78125 2048.792969 1028.140625 2048.761719 1026.589844 2048.773438 Z M 1163.660156 2079.492188 C 1148.75 2079.578125 1143.070312 2083.148438 1135.171875 2088.523438 C 1096.679688 2114.707031 1131.789062 2172.667969 1178.558594 2146.957031 C 1185.328125 2143.234375 1187.671875 2080.3125 1168.609375 2079.574219 C 1166.851562 2079.507812 1165.210938 2079.480469 1163.660156 2079.488281 Z M 1163.660156 2079.492188 "/>
<path fill-rule="nonzero" fill="rgb(100%, 71.289062%, 72.068787%)" fill-opacity="1" d="M 0 0 L 0 414.28125 C 308.632812 378.929688 575.574219 352.621094 649.265625 315.71875 C 722.960938 278.828125 810.363281 92.25 849.324219 0 Z M 0 0 "/>
<path fill-rule="nonzero" fill="rgb(39.988708%, 60.351562%, 60.742188%)" fill-opacity="1" d="M 543.609375 970.140625 C 529.644531 970.351562 504.707031 950.980469 493.929688 942.308594 C 398.785156 865.789062 447.667969 705.679688 469.875 603.660156 C 405.566406 546.171875 346.53125 482.769531 291.050781 415.449219 C 330.449219 496.949219 396.015625 766.421875 353.417969 767.050781 C 339.453125 767.261719 314.511719 747.878906 303.734375 739.210938 C 208.820312 662.878906 257.238281 503.371094 279.515625 401.320312 C 207.484375 312.441406 141.339844 217.109375 77.328125 119.679688 C 116.761719 217.96875 170.605469 450.789062 131.011719 451.378906 C 117.046875 451.589844 92.105469 432.210938 81.332031 423.539062 C -12.890625 347.761719 34.132812 190.019531 56.621094 87.890625 C 37.636719 58.679688 18.796875 29.351562 0 0 L 7.511719 0 C 62.589844 86.058594 118.074219 171.789062 176.535156 254.25 C 280.757812 222.328125 443.949219 153.941406 525.464844 275.480469 C 534.65625 289.269531 555.320312 321.128906 555.519531 339.320312 C 556.164062 397.140625 252.738281 310.601562 182.367188 262.511719 C 239.667969 342.851562 299.855469 420 365.34375 491.160156 C 469.574219 459.21875 632.609375 390.980469 714.074219 512.449219 C 723.269531 526.238281 743.921875 558.109375 744.128906 576.289062 C 744.761719 632.820312 454.789062 551.371094 376.058594 502.769531 C 425.472656 555.5 477.925781 604.800781 534.382812 649.550781 C 590.710938 628.03125 715.914062 673.070312 768.535156 709.609375 C 851.78125 768.441406 862.683594 805.628906 837.148438 821.371094 C 785.457031 853.109375 585.402344 797.550781 533.191406 656.890625 C 513.890625 641.679688 495.046875 625.941406 476.644531 609.699219 C 515.222656 678.039062 587.921875 969.5 543.609375 970.140625 Z M 543.609375 970.140625 "/>
<path fill-rule="nonzero" fill="rgb(65.818787%, 82.03125%, 80.46875%)" fill-opacity="1" d="M 2157.871094 0 C 2167.078125 13.71875 2176.179688 27.261719 2184.398438 40.371094 C 2310.75 241.789062 2593.921875 423.179688 2935 535.96875 C 3187.929688 619.621094 3473.089844 665.511719 3750 653.160156 L 3750 638.101562 C 3478.128906 650.480469 3197.050781 605.511719 2947.070312 522.839844 C 2610.800781 411.640625 2331.550781 232.359375 2207.808594 35.078125 C 2200.570312 23.539062 2192.75 11.820312 2184.828125 0 Z M 2157.871094 0 "/>
<path fill-rule="nonzero" fill="rgb(65.818787%, 82.03125%, 80.46875%)" fill-opacity="1" d="M 2701.238281 0 C 2866.71875 228.558594 3247.160156 320.761719 3542.339844 308.21875 C 3618.71875 304.96875 3689.761719 294.710938 3750 277.859375 L 3750 261.101562 C 3690.96875 278.871094 3619.25 289.921875 3540.570312 293.261719 C 3257.980469 305.261719 2891.878906 218.460938 2728.460938 0 Z M 2701.238281 0 "/>
<path fill-rule="nonzero" fill="rgb(65.818787%, 82.03125%, 80.46875%)" fill-opacity="1" d="M 3054.410156 0 C 3133.050781 72.679688 3255.761719 104.699219 3363.019531 98.558594 C 3440.691406 94.109375 3510.550781 69.410156 3547.398438 26.371094 C 3554.390625 18.199219 3560.171875 9.410156 3564.621094 0 L 3538.519531 0 C 3534.839844 6.941406 3530.359375 13.441406 3525.160156 19.519531 C 3492.371094 57.820312 3431.109375 79.589844 3360.628906 83.628906 C 3267.210938 88.980469 3158.121094 62.75 3084.179688 0 Z M 3054.410156 0 "/>
<path fill-rule="nonzero" fill="rgb(65.818787%, 82.03125%, 80.46875%)" fill-opacity="1" d="M 3750 1518.539062 C 3521.710938 1603.59375 3354.550781 1879.410156 3121.179688 1960.144531 C 2895.070312 2038.367188 2350.789062 2033.589844 2230.171875 2132.261719 C 2193.800781 2162.015625 2172.128906 2203.9375 2157.628906 2250 L 3750 2250 Z M 3750 1518.539062 "/>
<path fill-rule="nonzero" fill="rgb(100%, 71.289062%, 72.068787%)" fill-opacity="1" d="M 3206.390625 1279.855469 C 3220.359375 1279.648438 3245.289062 1299.019531 3256.070312 1307.6875 C 3351.21875 1384.207031 3302.328125 1544.316406 3280.128906 1646.335938 C 3344.429688 1703.828125 3403.46875 1767.230469 3458.949219 1834.546875 C 3419.550781 1753.046875 3353.980469 1483.578125 3396.589844 1482.949219 C 3410.550781 1482.738281 3435.488281 1502.117188 3446.269531 1510.785156 C 3541.179688 1587.121094 3492.761719 1746.628906 3470.480469 1848.679688 C 3542.519531 1937.554688 3608.660156 2032.894531 3672.671875 2130.320312 C 3633.238281 2032.023438 3579.390625 1799.207031 3618.988281 1798.621094 C 3632.949219 1798.414062 3657.890625 1817.789062 3668.671875 1826.457031 C 3762.890625 1902.238281 3715.871094 2059.984375 3693.378906 2162.113281 C 3712.359375 2191.316406 3731.199219 2220.648438 3750 2250 L 3742.488281 2250 C 3687.410156 2163.945312 3631.929688 2078.210938 3573.46875 1995.746094 C 3469.238281 2027.667969 3306.050781 2096.0625 3224.539062 1974.523438 C 3215.339844 1960.734375 3194.679688 1928.863281 3194.480469 1910.683594 C 3193.839844 1852.863281 3497.261719 1939.402344 3567.628906 1987.488281 C 3510.328125 1907.148438 3450.148438 1830 3384.660156 1758.832031 C 3280.429688 1790.78125 3117.390625 1859.015625 3035.929688 1737.550781 C 3026.730469 1723.761719 3006.078125 1691.882812 3005.871094 1673.707031 C 3005.238281 1617.175781 3295.21875 1698.625 3373.941406 1747.234375 C 3324.53125 1694.5 3272.078125 1645.199219 3215.621094 1600.449219 C 3159.289062 1621.96875 3034.089844 1576.929688 2981.46875 1540.390625 C 2898.21875 1481.554688 2887.320312 1444.367188 2912.851562 1428.632812 C 2964.539062 1396.890625 3164.601562 1452.453125 3216.808594 1593.101562 C 3236.109375 1608.324219 3254.949219 1624.0625 3273.359375 1640.292969 C 3234.78125 1571.957031 3162.078125 1280.5 3206.390625 1279.855469 Z M 3206.390625 1279.855469 "/>
</svg>
